<?xml version="1.0" encoding="UTF-8"?>
<!DOCTYPE svg PUBLIC "-//W3C//DTD SVG 1.1//EN" "http://www.w3.org/Graphics/SVG/1.1/DTD/svg11.dtd">
<!-- Creator: CorelDRAW X7 -->
<svg xmlns="http://www.w3.org/2000/svg" xml:space="preserve" width="10in" height="10in" version="1.1" style="shape-rendering:geometricPrecision; text-rendering:geometricPrecision; image-rendering:optimizeQuality; fill-rule:evenodd; clip-rule:evenodd"
viewBox="0 0 10000 10000"
 xmlns:xlink="http://www.w3.org/1999/xlink">
 <defs>
  <style type="text/css">
   <![CDATA[
    .fil0 {fill:black}
    .fil2 {fill:white}
    .fil1 {fill:white;fill-rule:nonzero}
   ]]>
  </style>
 </defs>
 <g id="Layer_x0020_1">
  <metadata id="CorelCorpID_0Corel-Layer"/>
  <g id="_675651096">
   <rect class="fil0" width="10000" height="10000"/>
   <g>
    <path class="fil1" d="M2689 5245l-81 -82c-31,28 -62,51 -94,68 -31,17 -69,25 -113,25 -34,0 -66,-6 -95,-20 -29,-13 -55,-31 -76,-55 -21,-23 -38,-50 -49,-82 -12,-31 -18,-64 -18,-100 0,-36 6,-69 18,-100 11,-31 28,-58 49,-81 21,-23 47,-41 76,-54 29,-14 61,-20 95,-20 41,0 78,8 110,24 32,17 63,38 92,65l81 -93c-17,-17 -35,-32 -54,-46 -20,-13 -41,-25 -63,-35 -23,-10 -48,-18 -75,-23 -27,-6 -57,-9 -90,-9 -55,0 -105,10 -150,30 -46,19 -85,46 -118,80 -33,34 -58,74 -76,119 -19,45 -28,94 -28,145 0,52 10,101 28,146 19,46 44,85 77,118 32,33 71,60 116,79 44,19 93,29 146,29 33,0 64,-3 92,-9 28,-6 53,-14 77,-26 23,-11 45,-25 65,-40 20,-15 40,-33 58,-53z"/>
    <path class="fil1" d="M4324 4828c0,-24 10,-44 31,-61 20,-17 49,-25 86,-25 33,0 66,6 98,19 32,12 65,31 98,55l68 -96c-37,-30 -77,-52 -119,-67 -42,-16 -90,-24 -143,-24 -35,0 -68,5 -98,15 -31,10 -56,25 -78,43 -21,19 -38,41 -50,66 -12,26 -19,55 -19,86 0,34 6,63 16,86 11,23 27,43 47,60 20,16 45,30 75,41 30,11 64,21 103,30 34,8 61,16 82,23 21,8 37,16 49,24 12,9 21,18 25,29 5,10 7,22 7,35 0,28 -12,50 -35,67 -23,16 -54,24 -93,24 -45,0 -86,-8 -121,-24 -36,-16 -71,-39 -106,-69l-76 90c43,39 90,68 141,87 50,19 104,29 159,29 38,0 73,-5 104,-15 32,-9 59,-23 81,-42 22,-19 40,-41 53,-68 12,-27 18,-57 18,-92 0,-30 -5,-56 -14,-78 -10,-23 -25,-42 -44,-59 -20,-17 -44,-31 -73,-43 -29,-11 -63,-22 -101,-32 -34,-8 -62,-16 -85,-23 -22,-8 -40,-16 -53,-25 -12,-9 -21,-19 -26,-29 -5,-10 -7,-22 -7,-37z"/>
    <polygon class="fil1" points="5733,4844 5733,5360 5858,5360 5858,4640 5723,4640 5504,4980 5285,4640 5150,4640 5150,5360 5276,5360 5276,4846 5501,5183 5505,5183 "/>
    <path class="fil1" d="M7039 4999c0,-51 -10,-99 -28,-144 -19,-45 -45,-85 -77,-119 -33,-33 -73,-60 -119,-79 -46,-20 -97,-30 -152,-30 -56,0 -107,10 -153,30 -46,20 -85,47 -119,81 -34,34 -60,74 -78,119 -19,45 -28,93 -28,144 0,51 9,99 28,144 18,45 44,85 77,119 33,33 72,60 118,79 46,20 97,30 153,30 55,0 106,-10 152,-30 46,-20 86,-47 119,-81 34,-34 60,-74 79,-119 18,-45 28,-93 28,-144zm-133 2c0,35 -6,68 -18,99 -12,32 -29,59 -50,82 -21,23 -47,41 -77,54 -30,14 -63,20 -98,20 -36,0 -69,-7 -99,-20 -30,-14 -56,-33 -78,-56 -21,-23 -38,-50 -50,-82 -12,-31 -18,-64 -18,-99 0,-35 6,-68 18,-99 12,-32 28,-59 50,-82 21,-23 47,-41 76,-54 30,-14 63,-20 99,-20 35,0 68,7 99,20 30,14 56,33 77,56 22,23 39,50 51,82 12,31 18,64 18,99z"/>
    <path class="fil1" d="M7566 4828c0,-24 10,-44 31,-61 21,-17 49,-25 86,-25 33,0 66,6 98,19 32,12 65,31 98,55l68 -96c-37,-30 -77,-52 -119,-67 -42,-16 -90,-24 -142,-24 -36,0 -69,5 -99,15 -30,10 -56,25 -78,43 -21,19 -38,41 -50,66 -12,26 -19,55 -19,86 0,34 6,63 16,86 11,23 27,43 47,60 20,16 45,30 75,41 30,11 64,21 103,30 34,8 61,16 82,23 21,8 37,16 50,24 12,9 20,18 24,29 5,10 7,22 7,35 0,28 -11,50 -34,67 -23,16 -54,24 -94,24 -45,0 -85,-8 -121,-24 -36,-16 -71,-39 -106,-69l-76 90c43,39 90,68 141,87 51,19 104,29 159,29 38,0 73,-5 104,-15 32,-9 59,-23 81,-42 23,-19 40,-41 53,-68 12,-27 19,-57 19,-92 0,-30 -5,-56 -15,-78 -10,-23 -25,-42 -44,-59 -19,-17 -44,-31 -73,-43 -29,-11 -63,-22 -101,-32 -34,-8 -62,-16 -85,-23 -22,-8 -40,-16 -52,-25 -13,-9 -22,-19 -27,-29 -5,-10 -7,-22 -7,-37z"/>
    <path class="fil2" d="M3571 5343c46,-20 86,-47 119,-81 34,-34 60,-74 79,-119 18,-45 27,-93 27,-144 0,-51 -9,-99 -27,-144 -11,-27 -25,-52 -41,-75l223 -223 -88 -89 -225 224c-20,-13 -41,-25 -65,-35 -46,-20 -97,-30 -152,-30 -56,0 -107,10 -153,30 -46,20 -86,47 -119,81 -34,34 -60,74 -78,119 -19,45 -28,93 -28,144 0,51 9,99 28,144 11,27 24,52 40,75l-223 223 89 89 224 -224c20,13 42,25 65,35 46,20 97,30 153,30 55,0 106,-10 152,-30zm-52 -107c-30,14 -63,20 -98,20 -36,0 -69,-7 -99,-20 -11,-5 -22,-11 -32,-18l344 -343c4,8 8,17 12,27 12,31 18,64 18,99 0,35 -6,68 -18,99 -12,32 -29,59 -50,82 -22,23 -47,41 -77,54zm30 -454l-343 343c-5,-8 -9,-17 -12,-27 -12,-31 -18,-64 -18,-99 0,-35 6,-68 18,-99 12,-32 28,-59 50,-82 21,-23 46,-41 76,-54 30,-14 63,-20 99,-20 35,0 68,7 98,20 12,5 22,11 32,18z"/>
   </g>
  </g>
 </g>
</svg>
